<svg height="1000" width="1071.429" xmlns="http://www.w3.org/2000/svg"><path fill="#ffffff" d="M499.968 500.032q0 -59.148 -41.85 -100.998t-100.998 -41.85 -100.998 41.85 -41.85 100.998 41.85 100.998 100.998 41.85 100.998 -41.85 41.85 -100.998zm428.544 285.696q0 -29.016 -21.204 -50.22t-50.22 -21.204 -50.22 21.204 -21.204 50.22q0 29.574 20.925 50.499t50.499 20.925 50.499 -20.925 20.925 -50.499zm0 -571.392q0 -29.016 -21.204 -50.22t-50.22 -21.204 -50.22 21.204 -21.204 50.22q0 29.574 20.925 50.499t50.499 20.925 50.499 -20.925 20.925 -50.499zm-214.272 234.918v103.23q0 5.58 -3.906 10.881t-8.928 5.859l-86.49 13.392q-6.138 19.53 -17.856 42.408 18.972 26.784 50.22 64.17 3.906 5.58 3.906 11.16 0 6.696 -3.906 10.602 -12.834 16.74 -46.035 49.941t-43.803 33.201q-6.138 0 -11.718 -3.906l-64.17 -50.22q-20.646 10.602 -42.966 17.298 -6.138 60.264 -12.834 86.49 -3.906 13.392 -16.74 13.392h-103.788q-6.138 0 -11.16 -4.185t-5.58 -9.765l-12.834 -85.374q-18.972 -5.58 -41.85 -17.298l-65.844 49.662q-3.906 3.906 -11.16 3.906 -6.138 0 -11.718 -4.464 -80.352 -74.214 -80.352 -89.28 0 -5.022 3.906 -10.602 5.58 -7.812 22.878 -29.574t26.226 -34.038q-12.834 -24.552 -19.53 -45.756l-84.816 -13.392q-5.58 -.558 -9.486 -5.301t-3.906 -10.881v-103.23q0 -5.58 3.906 -10.881t8.928 -5.859l86.49 -13.392q6.138 -19.53 17.856 -42.408 -18.972 -26.784 -50.22 -64.17 -3.906 -6.138 -3.906 -11.16 0 -6.696 3.906 -11.16 12.276 -16.74 45.756 -49.662t44.082 -32.922q6.138 0 11.718 3.906l64.17 50.22q18.972 -10.044 42.966 -17.856 6.138 -60.264 12.834 -85.932 3.906 -13.392 16.74 -13.392h103.788q6.138 0 11.16 4.185t5.58 9.765l12.834 85.374q18.972 5.58 41.85 17.298l65.844 -49.662q4.464 -3.906 11.16 -3.906 6.138 0 11.718 4.464 80.352 74.214 80.352 89.28 0 5.022 -3.906 10.602 -6.696 8.928 -23.436 30.132t-25.11 33.48q12.834 26.784 18.972 45.756l84.816 12.834q5.58 1.116 9.486 5.859t3.906 10.881zm357.12 297.414v78.12q0 8.928 -83.142 17.298 -6.696 15.066 -16.74 29.016 28.458 63.054 28.458 77.004 0 2.232 -2.232 3.906 -68.076 39.618 -69.192 39.618 -4.464 0 -25.668 -26.226t-29.016 -37.944q-11.16 1.116 -16.74 1.116t-16.74 -1.116q-7.812 11.718 -29.016 37.944t-25.668 26.226q-1.116 0 -69.192 -39.618 -2.232 -1.674 -2.232 -3.906 0 -13.95 28.458 -77.004 -10.044 -13.95 -16.74 -29.016 -83.142 -8.37 -83.142 -17.298v-78.12q0 -8.928 83.142 -17.298 7.254 -16.182 16.74 -29.016 -28.458 -63.054 -28.458 -77.004 0 -2.232 2.232 -3.906 2.232 -1.116 19.53 -11.16t32.922 -18.972 16.74 -8.928q4.464 0 25.668 25.947t29.016 37.665q11.16 -1.116 16.74 -1.116t16.74 1.116q28.458 -39.618 51.336 -62.496l3.348 -1.116q2.232 0 69.192 39.06 2.232 1.674 2.232 3.906 0 13.95 -28.458 77.004 9.486 12.834 16.74 29.016 83.142 8.37 83.142 17.298zm0 -571.392v78.12q0 8.928 -83.142 17.298 -6.696 15.066 -16.74 29.016 28.458 63.054 28.458 77.004 0 2.232 -2.232 3.906 -68.076 39.618 -69.192 39.618 -4.464 0 -25.668 -26.226t-29.016 -37.944q-11.16 1.116 -16.74 1.116t-16.74 -1.116q-7.812 11.718 -29.016 37.944t-25.668 26.226q-1.116 0 -69.192 -39.618 -2.232 -1.674 -2.232 -3.906 0 -13.95 28.458 -77.004 -10.044 -13.95 -16.74 -29.016 -83.142 -8.37 -83.142 -17.298v-78.12q0 -8.928 83.142 -17.298 7.254 -16.182 16.74 -29.016 -28.458 -63.054 -28.458 -77.004 0 -2.232 2.232 -3.906 2.232 -1.116 19.53 -11.16t32.922 -18.972 16.74 -8.928q4.464 0 25.668 25.947t29.016 37.665q11.16 -1.116 16.74 -1.116t16.74 1.116q28.458 -39.618 51.336 -62.496l3.348 -1.116q2.232 0 69.192 39.06 2.232 1.674 2.232 3.906 0 13.95 -28.458 77.004 9.486 12.834 16.74 29.016 83.142 8.37 83.142 17.298z"/></svg>